<?xml version="1.0" encoding="UTF-8" standalone="no"?>
<svg
   viewBox="0 0 1024 1024"
   version="1.1"
   id="svg8"
   sodipodi:docname="icon.svg"
   inkscape:version="1.4.4 (dcaf3e7, 2026-05-05)"
   xmlns:inkscape="http://www.inkscape.org/namespaces/inkscape"
   xmlns:sodipodi="http://sodipodi.sourceforge.net/DTD/sodipodi-0.dtd"
   xmlns="http://www.w3.org/2000/svg"
   xmlns:svg="http://www.w3.org/2000/svg">
  <defs
     id="defs8" />
  <sodipodi:namedview
     id="namedview8"
     pagecolor="#ffffff"
     bordercolor="#999999"
     borderopacity="1"
     inkscape:showpageshadow="2"
     inkscape:pageopacity="0"
     inkscape:pagecheckerboard="0"
     inkscape:deskcolor="#d1d1d1"
     showgrid="true"
     inkscape:zoom="4"
     inkscape:cx="486.625"
     inkscape:cy="552.875"
     inkscape:window-width="2560"
     inkscape:window-height="1529"
     inkscape:window-x="-8"
     inkscape:window-y="-8"
     inkscape:window-maximized="1"
     inkscape:current-layer="svg8">
    <inkscape:grid
       id="grid10"
       units="px"
       originx="0"
       originy="0"
       spacingx="1"
       spacingy="1"
       empcolor="#0099e5"
       empopacity="0.30196078"
       color="#0099e5"
       opacity="0.14901961"
       empspacing="5"
       enabled="true"
       visible="true" />
  </sodipodi:namedview>
  <g
     transform="translate(0.000000,1024.000000) scale(0.100000,-0.100000)"
     fill="#578fb4"
     id="g2">
    <path
       d="m 5025,7779 c -168,-88 -195,-273 -60,-404 32,-32 45,-52 45,-72 -1,-42 -26,-206 -49,-315 -28,-135 -124,-483 -142,-519 -5,-11 -33,-21 -76,-29 -150,-26 -314,-71 -444,-122 l -77,-30 -44,26 c -68,39 -159,60 -216,47 -179,-38 -300,-177 -303,-348 l -2,-73 -66,-57 c -36,-32 -99,-93 -141,-137 l -75,-78 -50,5 c -111,11 -244,-39 -305,-114 -17,-22 -43,-65 -58,-97 -23,-48 -27,-70 -26,-139 0,-70 5,-90 32,-146 36,-73 38,-92 16,-145 -8,-20 -32,-95 -53,-166 l -38,-129 -54,-21 c -82,-32 -169,-123 -197,-205 -25,-73 -27,-107 -11,-183 21,-99 76,-178 155,-224 l 44,-26 v -179 c 0,-169 1,-179 19,-179 11,0 106,-9 213,-20 106,-11 265,-27 353,-36 283,-28 307,-32 334,-59 23,-23 26,-35 40,-225 14,-189 16,-201 35,-205 39.4856,-2.8157 616.2879,-40.4025 699,-45 5,4 21,90 37,190 23,148 33,187 50,204 20,21 24,21 508,17 268,-1 495,-7 504,-12 23,-12 34,-52 63,-234 14,-88 29,-163 33,-167 8.7883,-8.7883 697.5312,42.7226 712,59 5,4 15,91 23,193 8,102 21,197 28,213 19,41 1,39 714,108 61,6 134,15 163,20 l 52,10 v 173 173 l 49,31 c 95,59 156,174 156,297 0,60 -5,81 -33,137 -39,79 -103,140 -181,173 l -54,22 -18,70 c -10,38 -37,122 -59,185 l -40,115 30,54 c 76,140 54,298 -60,417 -62,64 -118,86 -237,90 l -103,4 -67,72 c -38,39 -100,99 -139,134 l -72,63 -3,77 c -12,247 -252,409 -469,318 -36,-15 -75,-30 -87,-33 -13,-3 -88,16 -175,45 -129,43 -204,61 -396,98 -23,5 -34,24 -57,104 -8,25 -27,92 -45,150 -52,178 -109,465 -113,571 l -2,75 38,34 c 21,18 50,56 64,83 21,42 24,61 21,113 -6,92 -44,149 -127,192 -78,39 -146,43 -206,11 z M 4002,5050 c 120,-17 192,-54 277,-140 64,-63 81,-89 109,-156 78,-189 59,-371 -56,-524 -83,-110 -174,-166 -314,-194 -119,-25 -245,-3 -362,63 -49,28 -57,35 -121,112 -141,169 -162,367 -61,570 69,140 189,233 341,265 76,15 104,16 187,4 z m 2472,-31 c 99,-33 109,-39 176,-104 85,-83 98,-101 128,-190 39,-113 50,-230 29,-295 -46,-137 -108,-229 -208,-308 -84,-67 -287,-101 -400,-68 -162,46 -259,127 -330,273 -66,135 -73,252 -23,379 13,33 24,66 24,72 0,7 5,12 10,12 6,0 10,7 10,16 0,14 62,81 140,150 34,29 115,64 195,84 55,13 176,3 249,-21 z M 5217,4713 c 60,-48 65,-73 61,-364 l -3,-256 -28,-37 c -65,-84 -179,-84 -257,0 l -25,27 v 286 287 l 25,31 c 42,52 69,64 132,60 46,-3 65,-9 95,-34 z"
       id="path1"
       sodipodi:nodetypes="ccccccccccccccccccccccccccccssccsccccccccscscccccccsccccccccccccccccsccccccccccccccccccccccccccccssscccccccccccccc" />
    <path
       d="m 2841,3521 c -11,-7 -12,-43 -9,-182 5,-186 17,-242 76,-368 217.1426,-443.6092 699.4368,-622.8169 1148,-737 195,-48 284,-61 686,-104 123,-13 616,-13 750,0 239,23 319,33 428,51 207,35 341,66 515,121 369,115 606,266 807,513 44,54 85,129 111,205 47,133 57,195 57,358 v 153 l -87,-6 c -202,-15 -609,-59 -650,-71 -12,-3 -24,-13 -28,-22 -3,-10 -13,-97 -21,-195 -8,-99 -19,-188 -25,-198 -16,-31 -49,-38 -207,-49 -81,-6 -190,-15 -242,-20 -52,-6 -158,-14 -235,-20 -77,-5 -171,-12 -210,-15 -140,-11 -153,5 -185,230 -12,83 -28,160 -36,173 l -14,22 h -350 -349 l -13,-22 c -7,-13 -14,-34 -14,-48 -3,-51 -45,-262 -60,-300 -19,-48 -61,-65 -137,-56 -57,7 -207,18 -542,41 -319,22 -346,27 -364,73 -5,15 -17,107 -25,205 -9,99 -18,182 -21,187 -13,21 -99,33 -485,65 -96,8 -193,17 -215,20 -22,3 -46,1 -54,-4 z"
       id="path2"
       sodipodi:nodetypes="ccccccccccsccccccccccccccccccccccccsc" />
  </g>
  <g
     transform="translate(0.000000,1024.000000) scale(0.100000,-0.100000)"
     fill="#ffffff"
     id="g6">
    <path
       d="M6225 5040 c-80 -20 -161 -55 -195 -84 -78 -69 -140 -136 -140 -150 0 -9 -4 -16 -10 -16 -5 0 -10 -5 -10 -12 0 -6 -11 -39 -24 -72 -50 -127 -43 -244 23 -379 71 -146 168 -227 330 -273 113 -33 316 1 400 68 100 79 162 171 208 308 32 98 -21 343 -91 418 -37 39 -95 96 -116 114 -68 57 -279 101 -375 78z m150 -212 c82 -26 153 -89 189 -168 22 -46 26 -70 26 -146 0 -81 -3 -97 -31 -152 -37 -75 -102 -134 -178 -163 -45 -17 -72 -20 -137 -17 -69 4 -90 9 -145 39 -119 66 -175 169 -167 313 8 151 91 254 243 302 60 19 127 16 200 -8z"
       id="path4" />
    <path
       d="M5040 4734 c-14 -9 -36 -30 -50 -47 l-25 -31 0 -287 0 -286 25 -27 c78 -84 192 -84 257 0 l28 37 3 256 c4 291 -1 316 -61 364 -46 38 -136 48 -177 21z"
       id="path5" />
    <path
       d="M7379 3725 c-6 -5 -148 -21 -549 -60 -312 -31 -332 -35 -349 -72 -7 -16 -20 -111 -28 -213 -8 -102 -19 -189 -23 -193 -4 -5 -138 -19 -296 -32 -159 -13 -319 -26 -355 -29 l-66 -6 -28 171 c-30 189 -39 225 -64 238 -9 5 -235 11 -503 12 -484 4 -488 4 -508 -17 -17 -17 -27 -56 -50 -204 -16 -100 -32 -186 -37 -190 -4 -5 -93 -2 -198 6 -104 8 -264 20 -355 27 l-165 12 -16 203 c-15 191 -17 204 -40 227 -27 27 -52 32 -334 59 -88 9 -247 25 -353 36 -107 11 -202 20 -213 20 -17 0 -19 -8 -19 -97 l0 -98 48 -2 c45 -1 291 -22 517 -43 112 -10 192 -27 200 -40 3 -5 12 -88 21 -187 8 -98 20 -190 25 -205 18 -46 45 -51 364 -73 335 -23 485 -34 542 -41 76 -9 118 8 137 56 15 38 57 249 60 300 0 14 7 35 14 48 l13 22 349 0 350 0 14 -22 c8 -13 24 -90 36 -173 32 -225 45 -241 185 -230 39 3 133 10 210 15 77 6 183 14 235 20 52 5 161 14 242 20 158 11 191 18 207 49 6 10 17 99 25 198 8 98 18 186 21 195 4 11 26 21 58 27 81 16 355 45 630 67 l77 6 0 99 c0 76 -3 99 -13 99 -8 0 -16 -2 -18 -5z"
       id="path6" />
  </g>
  <ellipse
     style="fill:#4f5150;fill-opacity:1;stroke-width:1.39911"
     id="path9"
     cx="400.89923"
     cy="569.51898"
     rx="33.941128"
     ry="34.029514" />
  <ellipse
     style="fill:#ffffff;fill-opacity:1;stroke-width:2.14862"
     id="path9-2"
     cx="392.39764"
     cy="570.04974"
     rx="52.123596"
     ry="52.259331" />
  <ellipse
     style="fill:#4f5150;fill-opacity:1;stroke-width:1.39911"
     id="path9-9"
     cx="624.4411"
     cy="569.02954"
     rx="33.941128"
     ry="34.029514" />
  <ellipse
     style="fill:#000000;fill-opacity:0;stroke-width:1.39911"
     id="path9-9-8"
     cx="369.69113"
     cy="567.02954"
     rx="33.941128"
     ry="34.029514" />
</svg>
